<?xml version="1.0" encoding="UTF-8"?>
<!DOCTYPE svg PUBLIC "-//W3C//DTD SVG 1.1//EN" "http://www.w3.org/Graphics/SVG/1.1/DTD/svg11.dtd">
<!-- Creator: CorelDRAW (Versión OEM) -->
<svg xmlns="http://www.w3.org/2000/svg" xml:space="preserve" width="254mm" height="254mm" version="1.1" style="shape-rendering:geometricPrecision; text-rendering:geometricPrecision; image-rendering:optimizeQuality; fill-rule:evenodd; clip-rule:evenodd"
viewBox="0 0 25400 25400"
 xmlns:xlink="http://www.w3.org/1999/xlink"
 xmlns:xodm="http://www.corel.com/coreldraw/odm/2003">
 <defs>
  <style type="text/css">
   <![CDATA[
    .fil0 {fill:black}
   ]]>
  </style>
 </defs>
 <g id="Capa_x0020_1">
  <metadata id="CorelCorpID_0Corel-Layer"/>
  <g id="_1678969038224">
   <path class="fil0" d="M3803.43 21597.5zm0 0zm18431.88 -20576.18l546.96 0c572.17,3.98 1350.57,26.97 1460.46,136.88 109.91,109.89 132.9,888.29 136.88,1460.46l0 546.96c0,2417.24 -972.9,5170.46 -2192.45,7205.98 -493.63,823.88 -914.42,1432.84 -1517.39,2178.12 -85.04,105.12 -137.26,182.07 -225.27,276.58 -110.8,118.97 -149.93,181.4 -251.19,296.29l-1824.49 1779.77c-728.7,677.42 -583.18,280.13 -663.46,933.36l-79.22 970.13c-4.84,198.25 3.05,289.18 -25.17,476.68 -136.07,904.47 88,1439.98 -331.07,1767.61l-1473.79 1126.74c-986.45,788.87 -2321.75,1743.25 -3243.52,2505.04 -1497.1,1237.29 -1352.8,1009.62 -1521.41,-191.21l-475.47 -3493.76c-454.13,304.1 -493.48,729.99 -1323.09,729.99 0,945.85 -366.16,1640.86 -885.88,2307.76 -576.68,740.01 -2318.78,1207.29 -3275.21,1469.62 -424.56,116.45 -802.01,205.13 -1248.84,302.36l-1931.72 440.7c-519.7,107.79 -425.87,183.06 -824.95,87.53 -30.15,-129.45 -45.62,-78 -45.62,-182.5l581.77 -2611.87c201.24,-956.18 676.75,-2733 1121.05,-3623.79 541.82,-1086.3 1723.65,-1748.44 2950.77,-1748.44 0,-829.61 425.89,-868.96 729.99,-1323.09l-2368.66 -323.13c-374.58,-41.86 -758.71,-99.48 -1164.57,-158.5 -348.44,-50.67 -983.5,-38.21 -983.5,-339.58 0,-147.74 326.08,-518.92 416.89,-632.44 161.19,-201.5 294.22,-390.51 456.23,-593.11 158.4,-198.05 304.81,-389.57 456.57,-592.79l3178.73 -4121.01c126.91,-164.84 111.94,-150.75 356.99,-190.49l2434.83 -165.71c261.89,0.71 735.26,-4.22 880.67,-168.67 66.62,-75.34 62.69,-87.72 116.73,-157.01l1340.3 -1488.34c481.03,-481.08 1167.75,-1054.59 1682.65,-1465.38 1485.12,-1184.81 3615.45,-2331.72 5458.87,-2844.61 1039.55,-289.22 2230.28,-583.13 3568.6,-583.13zm-18431.88 20576.18c8.67,-388.91 1029.69,-4588.66 1228.46,-4793.82 133.5,-137.81 520.75,-87.88 778.97,-87.88 212.26,401.15 2473.12,2662.01 2874.27,2874.27 0,797.59 27.24,775.55 -341.6,890.22 -121.3,37.73 -243.42,75.93 -348.08,108.16 -446.52,137.58 -883.45,261.67 -1354.05,379.63l-2111.72 488.82c-240.16,49.59 -469.67,140.6 -726.25,140.6zm-638.73 456.24c0,37.7 144.79,182.49 182.49,182.49 273.14,0 3993.69,-916.55 4430.87,-1043.96 213.32,-62.18 431.96,-140.95 633.34,-187.88 -309.24,584.42 -527.77,905.06 -1154.68,1217.74 -1258.05,627.47 -4168.61,1221.76 -5643.21,1565.29 305.88,-1312.93 1035.56,-5350.04 2040.51,-6308.58 233.65,-222.86 455.49,-337.43 742.52,-489.31 -170.64,732.39 -434.99,1466.24 -657.99,2490.04l-573.85 2574.17zm8394.72 684.35c0,-359.69 -60.81,-676.1 -110.5,-1030.09 -49.57,-353.01 -86.26,-648.09 -137.83,-1002.76 -52.98,-364.31 -84.79,-644.99 -136.87,-1003.71 -51.8,-356.68 -116.66,-705.56 -116.66,-1069.55 2265.76,-527.86 3867.77,-1278.38 5766.94,-2536.55 138.41,-91.69 228.63,-167.48 346.61,-246.48l-92.46 1458.74c-1.69,260.08 -27.42,1234.1 -171.69,1379.49 -15.93,16.05 -169.34,122.33 -211.53,153.47l-671.2 515.01c-1300.98,1040.39 -2978.64,2231.57 -4195.99,3240.64 -132.19,109.56 -72.17,125.43 -268.82,141.79zm-5383.56 -6615.4c0,-485.55 562.87,-777.29 775.59,-1094.97l3433.09 3410.43c-329.01,224.05 -620.75,786.92 -1106.3,786.92 -404.77,0 -700.67,-404.11 -923.86,-627.32 -269.69,-269.67 -505.92,-505.92 -775.61,-775.59 -269.67,-269.69 -505.92,-505.92 -775.59,-775.61 -223.21,-223.19 -627.32,-519.09 -627.32,-923.86zm593.09 -1779.32c-328.53,0 -697.23,-63.76 -1030.08,-110.5 -561.03,-78.78 -2663.36,-391.36 -3076.03,-391.36 60.24,-258.58 3272.66,-4338.81 3701.79,-4875.43 437.77,-547.4 277.14,-508.78 569.99,-570.59l2617.36 -165.67 -447.22 647.75c-499.52,744.66 -787.23,1326.63 -1195.39,2135.1 -467.98,926.92 -896.97,2285.73 -1140.42,3330.7zm15694.48 -12820.2l1368.71 45.62c0,1295.38 156.8,1360.95 -77.26,2979.53 -137.12,948.18 -41.07,951.54 -671.23,1062.47 -2184.47,384.51 -3839,-1651.72 -3214.82,-3625.43 93.97,-297.14 416.91,-244.12 983.9,-339.19 437.94,-73.43 1082.93,-123 1610.7,-123zm-3148.02 456.24c0,334.7 -106.85,566.61 -93.36,959 60.76,1768.93 1511.23,3209.61 3285.78,3240.78 266.89,4.69 799.11,-62.41 959.31,-139.29 -248.81,1067.93 -955.38,2807.46 -1514.3,3732.4 -822.29,1360.79 -864.22,1411.97 -1790.01,2589.84l-835.97 943.35c-1371.71,1363.7 -2815.53,2554.23 -4558.59,3425.51 -403.36,201.62 -800.21,406.39 -1207.28,572.03 -406.47,165.41 -836.81,342.98 -1271.6,462.1 -1740.96,477.01 -1217.34,630.4 -2338.21,-490.46 -307.68,-307.69 -581.95,-581.96 -889.64,-889.64 -226.98,-226.98 -1692.58,-1642.62 -1755.18,-1761.58 -99.02,-188.15 222.17,-1152.76 283.65,-1375.21 413.81,-1497.21 1425.07,-3432.96 2365.67,-4705.96 557.34,-754.28 871.49,-1064.52 1368.83,-1687.94 74.15,-92.97 136.81,-146.62 223.46,-232.77 1182.72,-1175.85 1982.95,-1870.87 3424.35,-2780.46 181.6,-114.61 351.73,-218.6 542.23,-324.6 770.47,-428.7 2998.54,-1519.22 3800.86,-1537.1zm0 0zm-17428.16 12044.6l17428.16 -12044.6z"/>
   <path class="fil0" d="M16669.24 11742.84c-981.33,0 -1507.7,-116.04 -2201.42,-809.73 -249.49,-249.52 -376.44,-413.89 -537.09,-740.37 -513.41,-1043.31 -310.53,-2479.33 559.02,-3275.56 1820.87,-1667.37 4780.04,-552.66 4780.04,2133.87 0,1344.17 -1241.54,2691.79 -2600.55,2691.79zm-3558.62 -2783.03c0,3126.99 4127.11,4580.83 6022.69,1962.19 113.01,-156.13 229.32,-339.48 310.72,-510.49 617.9,-1298.05 372.7,-2798.18 -641.86,-3812.75 -292.09,-292.09 -516.25,-463.2 -900.07,-651.13 -927.12,-453.94 -2011.69,-428.96 -2936.35,31.22 -198.12,98.6 -326.62,172.77 -486.82,288.77 -842.28,609.89 -1368.31,1661.69 -1368.31,2692.19z"/>
   <path class="fil0" d="M10783.83 17445.77c0,613.18 2064.6,-287.41 2405.39,-423.25l1457.98 -686.34c173.07,-96.86 314.07,-149.7 479.99,-249.96 705.72,-426.41 1063.07,-642.01 1731.13,-1143.17 606.53,-455.01 1371.33,-1108.11 1922.6,-1636.03l1029.95 -1159.97c103.98,-128.75 200.79,-236.65 311.6,-372.77l908.34 -1281.56c400.98,-600.62 702.48,-1171.14 1037.25,-1837.05 161.12,-320.47 805.97,-1797.64 805.97,-2068.29 0,-104.5 -15.47,-53.05 -45.62,-182.48 -546.65,-127.36 -358.77,-33.93 -736.46,905.97 -474.63,1181.13 -751.21,1735.44 -1444.53,2844.08 -529.82,847.19 -926.95,1277.89 -1507.72,2005.28l-1075.38 1114.55c-270.42,208.81 -479.02,445.04 -749.93,664.39 -627.94,508.4 -1373.6,1068.34 -2073.68,1484.96 -1305.12,776.64 -2561.53,1328.99 -4047.29,1701.26 -188.3,47.19 -409.59,88.37 -409.59,320.38z"/>
   <path class="fil0" d="M16441.12 10374.13c-1025.43,0 -1931.37,-1207.41 -1077.17,-2354.64 670.21,-900.1 2588.69,-528.07 2503.41,1002.37 -43.02,772.23 -636.85,1352.27 -1426.24,1352.27zm-1916.18 -1551.2c0,2009.26 2135.63,2639.96 3303.66,1478.72 1865.96,-1855.08 -1143.24,-4720.66 -2925.78,-2515.17 -201.22,248.98 -377.88,690.61 -377.88,1036.45z"/>
   <path class="fil0" d="M3575.31 13248.4c0,420.44 495.53,349.87 1234.45,453.61l1502.96 185.12c222.96,0 266.31,-320.41 121.67,-437.6 -99.4,-80.53 -548.84,-124.58 -682.58,-142.08 -462.47,-60.48 -989.98,-100.19 -1400.89,-195.91 45.74,-171.34 1745.39,-2308.86 1988.16,-2619.79l672.16 -879.06c340.24,-419.23 91.8,-268.63 696.2,-353.13 469.77,-65.69 795.21,81.09 795.21,-345.39 0,-182.96 -180.96,-221.58 -336.01,-204.34 -197.1,21.91 -380.32,7.84 -569.8,28.52 -902.06,98.46 -491.98,-2.94 -1364.83,1053.22 -191.82,232.12 -349.25,450.36 -538.76,693.06 -200.5,256.79 -2117.94,2740.7 -2117.94,2763.77z"/>
   <path class="fil0" d="M12289.39 21050.01c-91.96,-394.77 -227.98,-1861.02 -303.5,-2024.54 -123.68,-267.81 -472.09,-94.88 -472.09,17.12l276.01 2233.28c122.91,917.78 378.79,532.49 1014.52,60.96l3448.04 -2665.51c602.3,-479.84 303.34,-332.27 432.28,-1398.51 37.68,-311.5 -45.5,-374.53 -289.15,-374.53 -298.01,0 -206.2,469.04 -247.24,756.49 -87.68,614.56 111.85,371.75 -620.09,931.09 -103.02,78.7 -167.77,138.72 -279.53,222.34 -208.89,156.29 -386.86,301.92 -593.09,456.23 -401.58,300.45 -752.8,588.06 -1160.44,892.63 -152.58,114 -1052.19,851.97 -1205.72,892.95z"/>
  </g>
 </g>
</svg>
