<?xml version="1.0" encoding="UTF-8"?>
<!DOCTYPE svg PUBLIC "-//W3C//DTD SVG 1.1//EN" "http://www.w3.org/Graphics/SVG/1.1/DTD/svg11.dtd">
<!-- Creator: CorelDRAW (Versión OEM) -->
<svg xmlns="http://www.w3.org/2000/svg" xml:space="preserve" width="254mm" height="254mm" version="1.1" style="shape-rendering:geometricPrecision; text-rendering:geometricPrecision; image-rendering:optimizeQuality; fill-rule:evenodd; clip-rule:evenodd"
viewBox="0 0 25400 25400"
 xmlns:xlink="http://www.w3.org/1999/xlink"
 xmlns:xodm="http://www.corel.com/coreldraw/odm/2003">
 <defs>
  <style type="text/css">
   <![CDATA[
    .fil0 {fill:black}
   ]]>
  </style>
 </defs>
 <g id="Capa_x0020_1">
  <metadata id="CorelCorpID_0Corel-Layer"/>
  <g id="_1678994539040">
   <path class="fil0" d="M15177.74 20121.94l1245.37 1223.13 -679.76 701.69 -1223.15 -1245.36 657.54 -679.46zm543.52 -521.6l655.68 -680.55 1269.47 1247.28 -680.54 655.7 -1244.61 -1222.43zm-2888.55 -2004.66c0,364.13 1471.77,1485.01 1812.3,1993.53l-668.66 690.57 -588.16 -611.74c-214.62,-215.69 -397.16,-396.23 -612.11,-611.18 -214.95,-214.95 -396.71,-396.71 -611.66,-611.66 -135.46,-135.46 -477.76,-516.9 -645.61,-577.67 17.37,-208.95 169.64,-282.91 419.08,-532.35 299.42,-299.43 1243.24,-1285.1 1438.52,-1415.87l2480.88 2457.63 -657.63 679.55c-429.6,-294.1 -1694.24,-1823.25 -1959.18,-1823.25 -202.04,0 -407.77,183.47 -407.77,362.44zm-5165.03 2899.68c-160.94,0 -1973.41,-1905.43 -2231.38,-2163.43 -860.61,-860.6 -919.26,-734.55 -339.81,-1313.9 146.97,-146.97 260.8,-260.8 407.77,-407.77l5878.62 -5855.98c85.06,160.76 153.3,307.6 241.08,483.84 319.71,641.93 684.19,937.48 981.55,1329.12 132.54,174.55 609.02,545.98 802.98,692.16 312.6,235.58 617.93,392.32 964.67,575.78 -148.83,222.26 -5488.95,5511.58 -6241.09,6263.74 -95.77,95.79 -328.88,396.44 -464.39,396.44zm-871.8 -11156.56l2468.78 2446.32 -1857.64 1880.03c-6.87,-4.7 -2216.83,-2097.97 -2457.78,-2457.79l644.56 -669.43c336.37,220.3 1617.41,1802.11 1983.27,1802.11 219.16,0 362.44,-143.31 362.44,-362.46 0,-240.6 -236.71,-395.39 -373.77,-532.35 -300.2,-299.97 -1242.56,-1284.64 -1438.52,-1415.87l668.66 -690.56zm-2979.32 -578.04l1234.41 1212.18c-52.02,166.48 -500.52,593.7 -645.43,690.73 -198.99,-133.26 -417.55,-394.88 -600.31,-577.67 -105.18,-105.19 -186.22,-196.81 -295.44,-293.54 -191.93,-169.97 -202.68,-228.13 -327.54,-261.47 24.15,-290.15 398.87,-418.64 634.31,-770.23zm7792.86 -407.77c0,-537.76 258.26,-2066.09 588.98,-2446.58 0,1680.72 1192.45,3616.54 2344.58,4768.67l949.46 817.54c172.8,128.88 332.18,234.89 505.03,355.8 158.17,110.64 386.43,244.81 565.31,340.83 538.26,288.97 1318.71,609.02 1952.16,720.96 226.52,40.03 584.5,104.71 796.73,109.44l-210.02 107.14c-859.85,393.02 -1598.44,481.86 -2553.74,481.86 -1026.72,0 -2058.29,-461.84 -2796.72,-1009.11l-666.65 -601.94c-188.72,-241.39 -335.88,-339.84 -566.81,-701.8 -545.86,-855.64 -908.31,-1813.95 -908.31,-2942.81zm-7260.3 -124.79l680.55 -655.7 1244.61 1222.45c-111.18,147.43 -576.62,614.95 -690.73,645.43l-1234.43 -1212.18zm6535.38 -147.05c0,1034.13 -3.19,916.85 226.54,1902.9l-1303.18 1279.37 -1986.7 -1976.53c-75.17,-74.94 -49.67,-49.91 -107.12,-119.43 -271.74,-328.86 -1319.51,-1325.92 -1650.52,-1656.9 -1223.2,-1223.23 -756.36,-1305.13 -2960.56,899.07 -1267.26,1267.28 -1354.86,706.62 1381.87,3443.35 346.04,346.03 2154.61,2202.23 2367.31,2344.66l-1529.11 1551.77c-267.82,267.81 -502.4,502.44 -770.24,770.23 -1208.4,1208.28 -477.67,1493.19 1042.08,3012.93 320.66,320.68 608.13,608.15 928.79,928.81 371.2,371.18 583.74,758.9 1189.33,758.9 454.9,0 676.88,-337.09 917.47,-577.67l2299.35 -2322c231.09,154.75 3569.21,3546.55 4134.29,4111.64 816.05,816.06 624.54,712.02 2129.45,-792.89 1805.64,-1805.64 1833.89,-1175.6 -317.16,-3330.08l-741.77 -708.06c-6.59,-6.57 -16.17,-15.97 -22.78,-22.53 -9.34,-9.26 -36.8,-35.21 -46.09,-44.52l-2145.67 -2158.53c77.83,-116.23 1176.3,-1223.31 1223.31,-1223.31 645.74,0 1454.99,604.27 3743.5,-152.93 1571.48,-519.97 3822.82,-2000.33 3822.82,-3879.42 0,-1060.86 -59.88,-1605.11 -485.09,-2595.82 -145.32,-338.58 -157.23,-439.77 -511.68,-439.77 -129.17,0 -372.82,190.6 -269.65,491.88 64.73,189.07 168.71,402.25 250.79,614.38 403.49,1042.69 471.96,2715.85 -401.32,3457.36 -1607.57,1364.96 -4072.05,289.64 -5430.71,-796.85 -110.97,-88.76 -221.19,-166.96 -323.04,-265.95 -209.5,-203.63 -387.29,-333.59 -589.11,-543.59 -113.53,-118.16 -133.68,-178.78 -247.73,-295.94 -125.67,-129.07 -161.19,-178.74 -273.32,-315.68 -178.83,-218.37 -346.86,-438.14 -500.11,-677.9 -503.82,-788.17 -806.59,-1474.27 -980.85,-2417.2 -309.73,-1676.24 615.74,-3146.94 2422.04,-3146.94 929.82,0 2004.27,380.68 2721.04,812.93 498.63,300.71 600.01,455.67 948.85,455.67 57.7,0 621.33,-296.95 -18.5,-751.73 -1441.24,-1024.39 -4008,-1843.84 -5606.9,-660.07 -468.56,346.9 -881.64,848.58 -1215.89,1321.31 -673.39,952.44 -1314.03,2449.37 -1314.03,3715.08z"/>
   <path class="fil0" d="M21395.81 3912.89c1315.78,0 1343.34,2038.81 0,2038.81 -1364.57,0 -1354.42,-2038.81 0,-2038.81zm-1767.01 1042.06c0,342.03 70.23,343.79 90.62,589 -915.45,484.39 -1843.8,1095.99 -2704.21,1554.66 -586.27,312.53 -126.89,756.01 31.09,756.01 335.72,0 2733.82,-1595.51 3080.89,-1676.38 594.98,398.42 543.95,498.38 1404.52,498.38 449.82,0 928.34,-287.11 1144.44,-531.92 974.94,-1104.45 407.19,-2956.74 -1416.27,-2956.74 -839.16,0 -1631.08,794.98 -1631.08,1766.99z"/>
   <path class="fil0" d="M7169.3 18728.38c0,202.02 183.47,407.77 362.46,407.77 255.01,0 1046.58,-888.01 1257.27,-1098.72l2967.62 -2967.62c145.97,-145.97 532.37,-457.51 532.37,-690.94 0,-157.93 -204.53,-362.46 -362.46,-362.46 -269.97,0 -1036.21,877.64 -1257.27,1098.71l-2944.97 2944.97c-130.24,130.24 -555.02,481.01 -555.02,668.29z"/>
   <path class="fil0" d="M6081.91 17550.38c0,210.58 1.14,453.07 362.47,453.07 253.87,0 514.69,-356.11 668.28,-509.69l3533.97 -3533.99c271.24,-271.21 509.71,-382.92 509.71,-758.88 0,-116.26 -125.85,-271.85 -362.46,-271.85 -269.86,0 -1016.83,858.25 -1234.62,1076.04l-2922.33 2922.33c-113.11,113.11 -555.02,477.26 -555.02,622.97z"/>
   <path class="fil0" d="M15460.54 6721.93c0,1173.09 703.59,2213.56 1741.51,2562.69 1117.51,375.91 1091.54,-531.92 687.09,-641.79 -161.03,-43.75 -283.86,-5.45 -443.4,-54.99 -754.98,-234.43 -1410.15,-1254.27 -1212.72,-2044.98 37.94,-151.95 77.8,-162.86 106.89,-300.64 114.93,-544.17 -879.37,-742.33 -879.37,479.71z"/>
  </g>
 </g>
</svg>
